# AST/ASF file generated using VICON BodyLanguage
# -----------------------------------------------
:version 1.10
:name VICON
:units
  mass 1.0
  length 0.45
  angle deg
:documentation
   .ast/.asf automatically generated from VICON data using
   VICON BodyBuilder and BodyLanguage model FoxedUp or BRILLIANT.MOD
:root
   order TX TY TZ RX RY RZ
   axis XYZ
   position 0 0 0  
   orientation 0 0 0 
:bonedata
  begin
     id 1 
     name lhipjoint
     direction 0.645893 -0.654526 0.392961 
     length 2.38111 
     axis 0 0 0  XYZ
  end
  begin
     id 2 
     name lfemur
     direction 0.34202 -0.939693 0  
     length 6.6822  
     axis 0 0 20  XYZ
    dof rx ry rz
    limits (-160.0 20.0)
           (-70.0 70.0)
           (-60.0 70.0)
  end
  begin
     id 3 
     name ltibia
     direction 0.34202 -0.939693 0   
     length 6.93904   
     axis 0 0 20   XYZ
    dof rx
    limits (-10.0 170.0)
  end
  begin
     id 4 
     name lfoot
     direction 0.0694967 -0.190941 0.979138   
     length 2.13616   
     axis -90 7.62852e-016 20   XYZ
    dof rx rz
    limits (-45.0 90.0)
           (-70.0 20.0)
  end
  begin
     id 5 
     name ltoes
     direction 1.535e-011 -4.2202e-011 1   
     length 1.07536   
     axis -90 7.62852e-016 20   XYZ
    dof rx
    limits (-90.0 20.0)
  end
  begin
     id 6 
     name rhipjoint
     direction -0.700219 -0.612087 0.367481   
     length 2.54621  
     axis 0 0 0  XYZ 
  end
  begin
     id 7 
     name rfemur
     direction -0.34202 -0.939693 0   
     length 6.55353   
     axis 0 0 -20   XYZ
    dof rx ry rz
    limits (-160.0 20.0)
           (-70.0 70.0)
           (-70.0 60.0)
  end
  begin
     id 8 
     name rtibia
     direction -0.34202 -0.939693 0   
     length 6.8736   
     axis 0 0 -20   XYZ
    dof rx
    limits (-10.0 170.0)
 end
 begin
     id 9 
     name rfoot
     direction -0.0679995 -0.186827 0.980037   
     length 2.1218  
     axis -90 -7.62852e-016 -20   XYZ
    dof rx rz
    limits (-45.0 90.0)
           (-20.0 70.0)
  end
  begin
     id 10 
     name rtoes
     direction -1.53589e-011 -4.21772e-011 1   
     length 1.06864   
     axis -90 -7.62852e-016 -20   XYZ
    dof rx
    limits (-90.0 20.0)
  end
  begin
     id 11 
     name lowerback
     direction -0.0416607 0.996347 -0.0745409   
     length 2.12205   
     axis 0 0 0   XYZ
    dof rx ry rz
    limits (-20.0 45.0)
           (-30.0 30.0)
           (-30.0 30.0)
  end
  begin
     id 12 
     name upperback
     direction -0.000153993 0.999276 -0.0380568   
     length 2.12759   
     axis 0 0 0   XYZ
    dof rx ry rz
    limits (-20.0 45.0)
           (-30.0 30.0)
           (-30.0 30.0)
  end
  begin
     id 13 
     name thorax
     direction 0.0187671 0.999821 -0.00241421   
     length 2.13704   
     axis 0 0 0   XYZ
    dof rx ry rz
    limits (-20.0 45.0)
           (-30.0 30.0)
           (-30.0 30.0)
  end
  begin
     id 14 
     name lowerneck
     direction 0.0268157 0.964865 0.261374   
     length 1.65253   
     axis 0 0 0   XYZ
    dof rx ry rz
    limits (-20.0 45.0)
           (-30.0 30.0)
           (-30.0 30.0)
  end
  begin
     id 15 
     name upperneck
     direction 0.00263774 0.939908 -0.341418   
     length 1.72375   
     axis 0 0 0   XYZ
    dof rx ry rz
    limits (-20.0 45.0)
           (-30.0 30.0)
           (-30.0 30.0)
  end
  begin
     id 16
     name head
     direction -0.00526001 0.989001 -0.147818  
     length 1.74878  
     axis 0 0 0   XYZ
    dof rx ry rz
    limits (-20.0 45.0)
           (-30.0 30.0)
           (-30.0 30.0)
  end
  begin
     id 17 
     name lclavicle
     direction 0.881214 0.461162 -0.103884  
     length 3.25108  
     axis 0 0 0   XYZ
    dof ry rz
    limits (-20.0 10.0)
           (0.0 20.0)
  end
  begin
     id 18 
     name lhumerus
     direction 1 -4.4899e-011 3.38092e-027   
     length 4.87408   
     axis 180 -30 -90   XYZ
    dof rx ry rz
    limits (-60.0 90.0)
           (-90.0 90.0)
           (-90.0 90.0)
  end
  begin
     id 19
     name lradius
     direction 1 -4.48931e-011 9.96288e-027   
     length 2.76729   
     axis 180 -30 -90   XYZ
    dof rx
    limits (-10.0 170.0)
  end
  begin
     id 20
     name lwrist
     direction 1 -4.4896e-011 1.50617e-026   
     length 1.38364   
     axis -9.31234e-015 90 90   XYZ
    dof ry
    limits (-180.0 0.0)
 end
  begin
     id 21 
     name lhand
     direction 1 -4.49038e-011 3.01286e-026   
     length 0.98922   
     axis -1.92217e-014 90 90   XYZ
    dof rx rz
    limits (-90.0 90.0)
           (-45.0 45.0)
  end
  begin
     id 22 
     name lfingers
     direction 1 -4.49051e-011 6.02588e-026   
     length 0.797535   
     axis -3.84436e-014 90 90   XYZ
    dof rx
    limits (0.0 90.0)
  end
  begin
     id 23
     name lthumb
     direction 0.707107 -6.34901e-011 0.707107   
     length 1.14511   
     axis -90 45 2.19363e-014   XYZ
    dof rx rz
    limits (-45.0 45.0)
           (-45.0 45.0)
  end
  begin
     id 24 
     name rclavicle
     direction -0.893894 0.441652 -0.0767889   
     length 3.29361  
     axis 0 0 0   XYZ 
    dof ry rz
    limits (-10.0 20.0)
           (-20.0 0.0)
  end
  begin
     id 25 
     name rhumerus
     direction -1 -4.48945e-011 8.0491e-028  
     length 4.71404   
     axis 180 30 90   XYZ
    dof rx ry rz
    limits (-90.0 60.0)
           (-90.0 90.0)
           (-90.0 90.0)
  end
  begin
     id 26 
     name rradius
     direction -1 -4.48986e-011 9.27795e-027   
     length 2.83468   
     axis 180 30 90   XYZ
    dof rx
    limits (-10.0 170.0)
  end
  begin
     id 27 
     name rwrist
     direction -1 -4.49029e-011 1.5064e-026   
     length 1.41734   
     axis -9.31234e-015 -90 -90   XYZ
    dof ry
    limits (-180.0 0.0)
  end
  begin
     id 28
     name rhand
     direction -1 -4.48857e-011 3.01165e-026   
     length 0.868195   
     axis -1.92217e-014 -90 -90   XYZ
    dof rx rz
    limits (-90.0 90.0)
           (-45.0 45.0)
  end
  begin
     id 29
     name rfingers
     direction -1 -4.49048e-011 6.02585e-026   
     length 0.699961   
     axis -3.84436e-014 -90 -90   XYZ
    dof rx
    limits (0.0 90.0)
  end
  begin
     id 30
     name rthumb
     direction -0.707107 -6.34854e-011 0.707107   
     length 1.00501   
     axis -90 -45 -2.19363e-014   XYZ
    dof rx rz
    limits (-45.0 45.0)
           (-45.0 45.0)
  end
:hierarchy
  begin
    root lhipjoint rhipjoint lowerback
    lhipjoint lfemur
    lfemur ltibia
    ltibia lfoot
    lfoot ltoes
    rhipjoint rfemur
    rfemur rtibia
    rtibia rfoot
    rfoot rtoes
    lowerback upperback
    upperback thorax
    thorax lowerneck lclavicle rclavicle
    lowerneck upperneck
    upperneck head
    lclavicle lhumerus
    lhumerus lradius
    lradius lwrist
    lwrist lhand lthumb
    lhand lfingers
    rclavicle rhumerus
    rhumerus rradius
    rradius rwrist
    rwrist rhand rthumb
    rhand rfingers
  end

#!OML:ASF H:\ManfredObstacles\Project 1\Capture day 2\Session 1\male.ASF
:FULLY-SPECIFIED
:DEGREES
269
root -0.335372 15.6903 22.8977 -171.221 -8.17461 176.943
lowerback -3.25696 -1.18989 -5.98318
upperback 0.794275 -1.34891 -0.348403
thorax 2.7797 -0.778991 2.91702
lowerneck -37.6248 -0.686923 2.82657
upperneck 39.1294 -6.30241 2.04545
head 23.5516 -1.96935 -1.56083
rclavicle 1.44989e-014 6.95746e-016
rhumerus -52.3574 -35.6732 -58.2533
rradius 22.6054
rwrist 41.724
rhand -0.676366 -7.74192
rfingers 7.12502
rthumb 24.9424 -36.1342
lclavicle 1.44989e-014 6.95746e-016
lhumerus -25.1502 -4.05457 90.2973
lradius 26.2262
lwrist -38.8745
lhand 4.69452 6.85993
lfingers 7.12502
lthumb 30.0786 34.4329
rfemur -36.3299 3.79799 15.635
rtibia 26.8229
rfoot 0.384112 -24.069
rtoes -21.7741
lfemur 17.3798 -12.0892 -26.1966
ltibia 0
lfoot 6.69601 12.1898
ltoes -19.8515
270
root -0.315931 15.7006 22.7674 -171.271 -7.94892 177.247
lowerback -3.35804 -1.30219 -5.73929
upperback 0.732752 -1.50253 -0.120868
thorax 2.78723 -0.849223 3.00527
lowerneck -37.6812 -0.480604 2.87423
upperneck 39.1742 -5.87943 1.81706
head 23.5899 -1.84612 -1.56912
rclavicle -2.00276e-014 5.26779e-015
rhumerus -52.0206 -35.2974 -58.3768
rradius 22.5271
rwrist 41.7112
rhand -0.679718 -7.72832
rfingers 7.12502
rthumb 24.9392 -36.121
lclavicle -2.00276e-014 5.26779e-015
lhumerus -25.3471 -3.30766 90.3238
lradius 26.2389
lwrist -39.0386
lhand 4.61516 6.83491
lfingers 7.12502
lthumb 30.0028 34.4217
rfemur -35.9405 3.58783 16.3176
rtibia 26.8988
rfoot 0.447422 -23.3113
rtoes -21.4403
lfemur 17.8177 -11.8545 -25.8195
ltibia 3.49861e-014
lfoot 7.25398 11.3999
ltoes -20.2259
271
root -0.295948 15.711 22.6364 -171.315 -7.67673 177.534
lowerback -3.4643 -1.39599 -5.50824
upperback 0.671194 -1.6324 0.082348
thorax 2.79496 -0.908511 3.07648
lowerneck -37.7336 -0.321381 2.83974
upperneck 39.264 -5.54096 1.67009
head 23.6789 -1.75658 -1.54679
rclavicle -8.51668e-015 6.70898e-015
rhumerus -51.69 -34.9681 -58.5059
rradius 22.4538
rwrist 41.7138
rhand -0.662928 -7.68281
rfingers 7.12502
rthumb 24.9553 -36.0733
lclavicle -8.51668e-015 6.70898e-015
lhumerus -25.5795 -2.60429 90.3158
lradius 26.2893
lwrist -39.1148
lhand 4.57635 6.80846
lfingers 7.12502
lthumb 29.9658 34.4019
rfemur -35.5597 3.47061 16.9496
rtibia 27.0095
rfoot 0.391738 -22.6355
rtoes -21.0314
lfemur 18.2448 -11.5795 -25.4523
ltibia 6.04305e-014
lfoot 7.85318 10.525
ltoes -20.5877
272
root -0.275288 15.721 22.505 -171.357 -7.37978 177.784
lowerback -3.58346 -1.4375 -5.29942
upperback 0.624756 -1.69138 0.220115
thorax 2.81739 -0.933955 3.09611
lowerneck -37.6846 -0.184099 2.9253
upperneck 39.2941 -5.30333 1.51304
head 23.6756 -1.68758 -1.57852
rclavicle 8.99501e-015 -1.01132e-014
rhumerus -51.4459 -34.7916 -58.6264
rradius 22.4202
rwrist 41.7139
rhand -0.611189 -7.62424
rfingers 7.12502
rthumb 25.0048 -36.0078
lclavicle 8.99501e-015 -1.01132e-014
lhumerus -25.8139 -2.13314 90.2794
lradius 26.3748
lwrist -39.1109
lhand 4.57636 6.77118
lfingers 7.12502
lthumb 29.9658 34.3646
rfemur -35.1898 3.4313 17.5112
rtibia 27.1626
rfoot 0.234146 -22.051
rtoes -20.6203
lfemur 18.6668 -11.2879 -25.115
ltibia 0
lfoot 8.52087 9.55086
ltoes -20.9629
273
root -0.254026 15.731 22.3731 -171.408 -7.06847 177.983
lowerback -3.68937 -1.38382 -5.09172
upperback 0.594791 -1.62336 0.232733
thorax 2.83367 -0.896251 2.99517
lowerneck -37.4948 -0.106174 3.17613
upperneck 39.2246 -5.26317 1.37341
head 23.5305 -1.66153 -1.68363
rclavicle 1.41323e-014 -7.65321e-015
rhumerus -51.4071 -34.8976 -58.7131
rradius 22.4489
rwrist 41.6956
rhand -0.532421 -7.56434
rfingers 7.12502
rthumb 25.0803 -35.9374
lclavicle 1.41323e-014 -7.65321e-015
lhumerus -26.0436 -2.10998 90.2012
lradius 26.4997
lwrist -38.9408
lhand 4.63153 6.72595
lfingers 7.12502
lthumb 30.0185 34.3099
rfemur -34.8142 3.42868 18.0003
rtibia 27.3455
rfoot 0.0064391 -21.5214
rtoes -20.2838
lfemur 16.1489 -10.9585 -24.7814
ltibia 5.76327
lfoot 7.36632 10.6107
ltoes -21.3417
274
root -0.231891 15.741 22.241 -171.476 -6.76214 178.143
lowerback -3.77864 -1.26564 -4.89096
upperback 0.582838 -1.46899 0.156756
thorax 2.84988 -0.815819 2.81247
lowerneck -37.0512 -0.0269984 3.69997
upperneck 39.4386 -5.29174 1.10878
head 22.765 -1.66509 -1.81405
rclavicle 2.16862e-014 1.18774e-014
rhumerus -51.5003 -35.1903 -58.8024
rradius 22.5371
rwrist 41.6459
rhand -0.44934 -7.49561
rfingers 7.12502
rthumb 25.1599 -35.8575
lclavicle 2.16862e-014 1.18774e-014
lhumerus -26.2617 -2.42232 90.0967
lradius 26.6477
lwrist -38.6877
lhand 4.70479 6.66764
lfingers 7.12502
lthumb 30.0884 34.2389
rfemur -34.4183 3.46042 18.4344
rtibia 27.5432
rfoot -0.25295 -21.0368
rtoes -20.0045
lfemur 14.855 -10.6425 -24.5289
ltibia 9.15574
lfoot 7.06227 10.6954
ltoes -21.7393
275
root -0.208901 15.7512 22.1087 -171.563 -6.46871 178.277
lowerback -3.84506 -1.05759 -4.66515
upperback 0.632822 -1.19455 -0.0314916
thorax 2.90593 -0.676861 2.5077
lowerneck -36.9053 -0.0429844 4.23381
upperneck 39.2296 -5.56415 0.978718
head 22.5365 -1.70023 -2.04029
rclavicle -1.96424e-014 -9.93923e-017
rhumerus -51.6875 -35.8087 -58.9105
rradius 22.6811
rwrist 41.5884
rhand -0.371455 -7.43348
rfingers 7.12502
rthumb 25.2345 -35.7849
lclavicle -1.96424e-014 -9.93923e-017
lhumerus -26.3426 -3.19698 89.965
lradius 26.79
lwrist -38.3204
lhand 4.79642 6.62
lfingers 7.12502
lthumb 30.1758 34.1753
rfemur -33.9884 3.47075 18.8455
rtibia 27.736
rfoot -0.536797 -20.54
rtoes -19.7196
lfemur 13.8541 -10.3408 -24.3196
ltibia 11.9808
lfoot 7.03997 10.4855
ltoes -22.1777
276
root -0.184927 15.7616 21.9767 -171.659 -6.20237 178.395
lowerback -3.88675 -0.825556 -4.43967
upperback 0.67032 -0.890028 -0.261872
thorax 2.93622 -0.522168 2.16259
lowerneck -36.6677 -0.0648606 4.85235
upperneck 38.9696 -5.87997 0.837397
head 22.2411 -1.7467 -2.29262
rclavicle -1.47846e-014 -8.34896e-015
rhumerus -51.935 -36.4196 -59.0839
rradius 22.89
rwrist 41.421
rhand -0.312745 -7.38242
rfingers 7.12502
rthumb 25.2908 -35.7259
lclavicle -1.47846e-014 -8.34896e-015
lhumerus -26.439 -4.162 89.821
lradius 26.9239
lwrist -37.9538
lhand 4.9002 6.57532
lfingers 7.12502
lthumb 30.2748 34.1125
rfemur -33.5302 3.43722 19.2517
rtibia 27.9114
rfoot -0.817925 -20.0128
rtoes -19.3653
lfemur 12.9295 -10.2731 -24.1773
ltibia 14.6401
lfoot 7.35881 10.261
ltoes -22.6234
277
root -0.159975 15.7716 21.845 -171.76 -5.96612 178.508
lowerback -3.92531 -0.77123 -4.32215
upperback 0.701452 -0.819588 -0.311239
thorax 2.98244 -0.486251 2.04972
lowerneck -36.5813 -0.0111216 5.14187
upperneck 38.845 -5.88901 0.712175
head 22.1084 -1.72806 -2.40194
rclavicle 7.87684e-015 3.97569e-015
rhumerus -51.7118 -36.4801 -59.4863
rradius 23.0495
rwrist 41.2043
rhand -0.271217 -7.33967
rfingers 7.12502
rthumb 25.3306 -35.6775
lclavicle 7.87684e-015 3.97569e-015
lhumerus -26.5623 -4.42217 89.7124
lradius 27.0363
lwrist -37.7971
lhand 4.96031 6.49112
lfingers 7.12502
lthumb 30.3321 34.0177
rfemur -33.0391 3.3481 19.6684
rtibia 28.0631
rfoot -1.11235 -19.4882
rtoes -18.8991
lfemur 11.9924 -10.1248 -24.002
ltibia 17.2637
lfoot 7.75668 9.85839
ltoes -23.0294
278
root -0.134175 15.7808 21.7143 -171.861 -5.7638 178.616
lowerback -3.94875 -0.751236 -4.22102
upperback 0.701023 -0.79615 -0.338541
thorax 2.99158 -0.472829 1.96618
lowerneck -36.5216 0.0464799 5.33129
upperneck 38.8187 -5.87472 0.622596
head 22.0613 -1.71129 -2.47535
rclavicle -5.69021e-015 -1.92821e-014
rhumerus -51.4393 -36.3486 -59.9825
rradius 23.242
rwrist 40.8803
rhand -0.24768 -7.3211
rfingers 7.12502
rthumb 25.3531 -35.6557
lclavicle -5.69021e-015 -1.92821e-014
lhumerus -26.7387 -4.62875 89.612
lradius 27.1405
lwrist -37.6898
lhand 5.00779 6.39979
lfingers 7.12502
lthumb 30.3774 33.9181
rfemur -32.5322 3.19527 20.0951
rtibia 28.1957
rfoot -1.41 -18.9978
rtoes -18.4398
lfemur 11.0058 -9.88534 -23.7879
ltibia 19.8968
lfoot 8.25051 9.27587
ltoes -23.2355
279
root -0.107571 15.7893 21.5844 -171.962 -5.58161 178.72
lowerback -3.96682 -0.773236 -4.14822
upperback 0.670579 -0.828892 -0.325989
thorax 2.97145 -0.486957 1.93618
lowerneck -36.4366 0.0732773 5.3077
upperneck 38.8869 -5.84789 0.630072
head 22.0899 -1.7112 -2.4643
rclavicle -1.0138e-014 1.55052e-014
rhumerus -51.1062 -36.0129 -60.5394
rradius 23.4465
rwrist 40.4835
rhand -0.239307 -7.32185
rfingers 7.12502
rthumb 25.3611 -35.6553
lclavicle -1.0138e-014 1.55052e-014
lhumerus -26.9755 -4.70072 89.5252
lradius 27.2427
lwrist -37.6121
lhand 5.05043 6.30731
lfingers 7.12502
lthumb 30.4181 33.8181
rfemur -32.0099 2.98309 20.5315
rtibia 28.3124
rfoot -1.7214 -18.542
rtoes -17.9713
lfemur 9.96028 -9.54151 -23.5348
ltibia 22.559
lfoot 8.83165 8.54362
ltoes -23.4152
280
root -0.0804731 15.7967 21.4559 -172.067 -5.42155 178.819
lowerback -3.96959 -0.823182 -4.0945
upperback 0.624847 -0.899445 -0.287852
thorax 2.93003 -0.519715 1.94107
lowerneck -36.3108 0.116512 5.23972
upperneck 38.9609 -5.76315 0.634312
head 22.1149 -1.69991 -2.43122
rclavicle 9.7156e-015 -1.19271e-015
rhumerus -50.7302 -35.5499 -61.1323
rradius 23.6611
rwrist 40.0415
rhand -0.245516 -7.33425
rfingers 7.12502
rthumb 25.3552 -35.6686
lclavicle 9.7156e-015 -1.19271e-015
lhumerus -27.2239 -4.67529 89.4435
lradius 27.3338
lwrist -37.5859
lhand 5.08711 6.20035
lfingers 7.12502
lthumb 30.4531 33.7046
rfemur -31.472 2.69393 20.9774
rtibia 28.4112
rfoot -2.05047 -18.0916
rtoes -17.4942
lfemur 8.85456 -9.11361 -23.2499
ltibia 25.2632
lfoot 9.50895 7.67665
ltoes -23.4037
